{
  "title": "Vozvrashchenie [The Return] [2003] DvDRip XviD AC3 - CODY",
  "uid": 6374282,
  "size": 1466469000,
  "categoryP": "video",
  "categoryS": "movies",
  "magnet": "?xt=urn:btih:403615ba9fd2090172052ca6b11795826715f06d&amp;dn=Vozvrashchenie+%5BThe+Return%5D+%5B2003%5D+DvDRip+XviD+AC3+-+CODY&amp;tr=udp%3A%2F%2Ftracker.openbittorrent.com%3A80&amp;tr=udp%3A%2F%2Fopen.demonii.com%3A1337&amp;tr=udp%3A%2F%2Ftracker.coppersurfer.tk%3A6969&amp;tr=udp%3A%2F%2Fexodus.desync.com%3A6969",
  "seeders": 50,
  "leechers": 1,
  "uploader": "CODYBOSS1969",
  "files": 5,
  "time": 1304797202,
  "description": "General\nComplete name                    : Vozvrashchenie [The Return] [2003] DvDRip XviD AC3 - CODY.avi\nFormat                           : AVI\nFormat/Info                      : Audio Video Interleave\nFile size                        : 1.37 GiB\nDuration                         : 1h 45mn\nOverall bit rate                 : 1 845 Kbps\nWriting application              : VirtualDubMod 1.5.10.2 (build 2540/release)\nWriting library                  : VirtualDubMod build 2540/release\n\nVideo\nID                               : 0\nFormat                           : MPEG-4 Visual\nFormat profile                   : Advanced Simple@L5\nFormat settings, BVOP            : 1\nFormat settings, QPel            : No\nFormat settings, GMC             : No warppoints\nFormat settings, Matrix          : Default (H.263)\nCodec ID                         : XVID\nCodec ID/Hint                    : XviD\nDuration                         : 1h 45mn\nBit rate                         : 1 452 Kbps\nWidth                            : 720 pixels\nHeight                           : 392 pixels\nDisplay aspect ratio             : 16:9\nFrame rate                       : 25.000 fps\nColor space                      : YUV\nChroma subsampling               : 4:2:0\nBit depth                        : 8 bits\nScan type                        : Progressive\nCompression mode                 : Lossy\nBits/(Pixel*Frame)               : 0.206\nStream size                      : 1.07 GiB (79%)\nWriting library                  : XviD 1.2.0.dev47 (UTC 2006-11-01)\n\nAudio\nID                               : 1\nFormat                           : AC-3\nFormat/Info                      : Audio Coding 3\nMode extension                   : CM (complete main)\nCodec ID                         : 2000\nDuration                         : 1h 45mn\nBit rate mode                    : Constant\nBit rate                         : 384 Kbps\nChannel(s)                       : 6 channels\nChannel positions                : Front: L C R, Side: L R, LFE\nSampling rate                    : 48.0 KHz\nBit depth                        : 16 bits\nCompression mode                 : Lossy\nStream size                      : 291 MiB (21%)\nAlignment                        : Split accross interleaves\nInterleave, duration             : 40 ms (1.00 video frame)\nInterleave, preload duration     : 500 ms\n\n\n\n\nIMDB link:                      &lt;a href=&quot; http://www.imdb.com/title/tt0376968/&quot; rel=&quot;nofollow&quot; target=&quot;_NEW&quot;&gt; http://www.imdb.com/title/tt0376968/&lt;/a&gt;\n\n\n\nSubtitles included               : English, Romanian\n\n\n\nPlease seed at least 1,5:1. This way this torrent has a chance to survive !\n\n\nThanks. ENJOY !!\n",
  "parsed": {
    "xt": "urn:btih:403615ba9fd2090172052ca6b11795826715f06d",
    "dn": "Vozvrashchenie [The Return] [2003] DvDRip XviD AC3 - CODY",
    "tr": [
      "udp://exodus.desync.com:6969",
      "udp://open.demonii.com:1337",
      "udp://tracker.coppersurfer.tk:6969",
      "udp://tracker.openbittorrent.com:80"
    ],
    "infoHash": "403615ba9fd2090172052ca6b11795826715f06d",
    "infoHashBuffer": {
      "type": "Buffer",
      "data": [
        64,
        54,
        21,
        186,
        159,
        210,
        9,
        1,
        114,
        5,
        44,
        166,
        177,
        23,
        149,
        130,
        103,
        21,
        240,
        109
      ]
    },
    "name": "Vozvrashchenie [The Return] [2003] DvDRip XviD AC3 - CODY",
    "announce": [
      "udp://exodus.desync.com:6969",
      "udp://open.demonii.com:1337",
      "udp://tracker.coppersurfer.tk:6969",
      "udp://tracker.openbittorrent.com:80"
    ],
    "urlList": []
  },
  "previous": 16,
  "peers": 17,
  "last_updated": "2016-12-26T22:18:39.433Z"
}